<?xml version="1.0" encoding="utf-8"?>
<!-- Generator: Adobe Illustrator 21.1.0, SVG Export Plug-In . SVG Version: 6.00 Build 0)  -->
<svg version="1.1" id="Layer_3" xmlns="http://www.w3.org/2000/svg" xmlns:xlink="http://www.w3.org/1999/xlink" x="0px" y="0px"
	 viewBox="0 0 698 233" style="enable-background:new 0 0 698 233;" xml:space="preserve">
<style type="text/css">
	.st0{fill:#60E4D4;}
</style>
<g>
	<path class="st0" d="M172.1,149.2c-2.3,0-4.1,3.9-5.4,11.6c-1.8,9.3-3.9,15.5-6.4,18.4c-3.4,3.6-9.9,5.9-19.6,6.8
		c-7.2,0.9-23.1,1.5-47.7,1.7H62.1H51c71.9-39.4,107.9-78.6,107.9-117.5c0-19.8-7.1-36-21.3-48.5S105,3,82.4,3
		C60.5,3,43.4,8.3,30.8,18.8c-12.5,10.5-18.8,25-18.8,43.5c0,10.8,2.6,19.5,7.9,26c5.3,6.5,12.2,9.8,20.7,9.8
		c6.5,0,11.8-2.2,15.8-6.6s6.1-10.1,6.1-17.1c0-7-2.1-12.8-6.4-17.4c-4.2-4.6-9.8-7.2-16.8-7.6c-5.4-0.4-8.6-0.8-9.7-1
		c-3.1-0.9-4.7-3.2-4.7-6.8c0-6.3,3.3-12.3,10-18.1c6.6-5.8,15.1-8.6,25.2-8.6c12.2,0,21.9,3.9,29.1,11.8
		c10.1,11.3,15.2,27.5,15.2,48.6c0,31.8-9.5,58.2-28.6,79.2C56.8,175.6,33.5,197,6,218.9c-3.4,2.7-5.1,5-5.1,6.8
		c0,2.7,4.1,4.1,12.2,4.1h2.7c1.8-0.2,3.5-0.3,5.1-0.3l45-0.8c3.6,0,8.1-0.1,13.5-0.2c4.1-0.1,6.8-0.2,8.1-0.2
		c25.7,0,52.1,0.4,79.2,1.4c1.8-27.1,4.4-50.2,7.8-69.4c0.4-2.5,0.7-4.6,0.7-6.4C175.1,150.8,174.1,149.2,172.1,149.2z"/>
	<path class="st0" d="M265.4,32.5c4.7-15.8,12.9-23.8,24.4-23.8c9,0,15.6,4.1,19.6,12.2c5.8,11.7,9.1,34.9,10.2,69.4h53.6
		c-1.9-10.7-4.8-21-8.8-30.8c-7.6-18.5-17.7-32.7-30.3-42.6C322.2,7.7,307.6,3,290.5,3c-18.9,0-35.3,6-49.1,17.9
		c-20.2,17.4-32.7,40.6-37.4,69.4H258C258.8,65.8,261.3,46.5,265.4,32.5z"/>
	<path class="st0" d="M313.8,202.9C310,219,302.4,227,291.2,227c-7.4,0-13.6-4.2-18.6-12.6c-7.6-12.7-12.3-36.4-14.1-71.1h-54.6
		c3.5,21.1,11.5,39.7,24.1,55.9c17.4,22.3,38.3,33.5,62.9,33.5c24.6,0,44.9-10.6,60.9-31.8c12-15.9,19.5-35.1,22.5-57.6h-54.7
		C318.8,170.3,316.9,190.2,313.8,202.9z"/>
	<path class="st0" d="M500.1,223.3c-8.7,0.2-13.2-4.2-13.5-13.2c0-2.7,0-14.3,0-34.8v-31.9h-50.4v67.1c0,4-0.7,7.1-2,9.1
		c-2.2,2.3-8.3,3.5-18.1,3.7c-7.6,0-12,0.1-13.1,0.3c-1.1,0.2-1.7,1-1.7,2.4c0,2,2.8,3,8.5,3c0.4,0,2.3,0,5.4,0c3.6,0,6.8,0,9.5,0
		h42.3c21.7-0.2,34.1-0.2,37.2,0h8.1c5.9,0,8.8-0.9,8.8-2.7C521.2,223.8,514.2,222.8,500.1,223.3z"/>
	<path class="st0" d="M486.7,11.2c0-2.9,0-4.7,0-5.4l-1.3-5.1l-12.8,7.8c-7.4,4.7-11.5,7.3-12.1,7.8c-13.5,7.9-29.8,12.6-48.9,14.2
		c-7.4,0.7-11.1,1.7-11.1,3c0,2,2.9,2.9,8.7,2.7h17.1c5.6,0,8.7,1.8,9.4,5.4c0.4,2.3,0.7,16.7,0.7,43.5v5.3h50.4V11.2z"/>
	<path class="st0" d="M693.7,6.8h-16.9c-10.1,0-24.3,0.2-42.5,0.5c-18.2,0.3-28.7,0.5-31.6,0.5c-15.1,0-33.4-0.7-54.8-2
		c-1.6,1.6-2.6,3.9-3,7.1c-1.4,10.4-2.4,18.3-3,23.7c-2.5,17.4-4.1,28-4.7,32c-0.7,3.9-1,6.9-1,9c0,3.2,1,4.7,3,4.7
		c1.4,0,2.3-1.5,2.7-4.4c2.3-12.6,4.8-20.7,7.6-24.2c2.8-3.5,8.3-5.1,16.4-4.9h17.2c1.1,0,3.5,0,7.1,0c4.5,0,8.6,0,12.2,0h60.2
		L613.3,122c-20.2,30.7-30.2,55.7-30.2,74.9c0,10.4,2.4,19,7.3,25.9c4.8,6.9,11,10.3,18.4,10.3c5.6,0,10.5-2.4,14.5-7.3
		c4.1-4.8,6.1-10.8,6.1-17.8c0-4.3-0.7-9.6-2-15.9c-3.4-15.6-5.1-27.4-5.1-35.5c0-20.1,6.2-40.1,18.6-60.2c12-19.4,27.3-42.4,46-69
		c7.7-10.8,11.5-16.9,11.5-18.3C698.5,7.5,696.9,6.8,693.7,6.8z"/>
</g>
<g>
	<path class="st0" d="M222,107.3c-1.3-0.7-2.7-1.1-4-1.1c-1.5,0-2.9,0.4-4.1,1.1c-1.2,0.8-2.2,1.8-2.9,3.1c-0.7,1.3-1.1,2.8-1.1,4.4
		c0,1.6,0.4,3.1,1.1,4.4c0.7,1.3,1.7,2.4,2.9,3.1c1.2,0.8,2.6,1.1,4.1,1.1c1.2,0,2.5-0.3,3.9-0.9c1.3-0.6,2.5-1.5,3.6-2.6l4.6,4.9
		c-1.6,1.7-3.6,3.1-5.8,4.1c-2.2,1-4.5,1.5-6.7,1.5c-3,0-5.7-0.7-8.1-2.1c-2.4-1.4-4.3-3.2-5.7-5.6c-1.4-2.4-2.1-5-2.1-8
		c0-2.9,0.7-5.5,2.1-7.9c1.4-2.3,3.3-4.2,5.8-5.5c2.4-1.3,5.2-2,8.2-2c2.2,0,4.4,0.5,6.6,1.4c2.2,0.9,4,2.2,5.5,3.8l-4.5,5.5
		C224.5,109,223.4,108.1,222,107.3z"/>
	<path class="st0" d="M241.1,100.1h7.8v23.4h12.7v6.7h-20.6V100.1z"/>
	<path class="st0" d="M296.1,130.1l-2.1-5.3h-13l-2.1,5.3h-8.1l12.9-30.1h8.1l12.6,30.1H296.1z M283.4,118.8h8.3l-4.1-10.7
		L283.4,118.8z"/>
	<path class="st0" d="M331.2,106.8c-1.8-0.6-3.3-0.9-4.6-0.9c-1,0-1.7,0.2-2.3,0.5c-0.6,0.4-0.8,0.9-0.8,1.6c0,0.7,0.2,1.2,0.7,1.7
		c0.5,0.4,1.1,0.8,1.8,1.1c0.7,0.3,1.8,0.6,3.2,1.1c2.1,0.6,3.8,1.2,5.2,1.8c1.4,0.6,2.5,1.5,3.5,2.8s1.5,2.9,1.5,4.9
		c0,2-0.5,3.7-1.6,5.1c-1.1,1.4-2.5,2.5-4.4,3.2c-1.8,0.7-3.9,1.1-6.2,1.1c-2.5,0-5-0.4-7.4-1.3c-2.5-0.9-4.6-2.1-6.4-3.6l3-6.1
		c1.5,1.3,3.3,2.4,5.4,3.3c2.1,0.9,3.9,1.3,5.5,1.3c1.2,0,2.1-0.2,2.8-0.6c0.7-0.4,1-1.1,1-1.9c0-0.7-0.3-1.3-0.8-1.7
		c-0.5-0.5-1.1-0.8-1.9-1.1c-0.8-0.3-1.8-0.6-3.2-1c-2.1-0.6-3.8-1.2-5.1-1.7c-1.3-0.6-2.5-1.5-3.5-2.7c-1-1.2-1.4-2.8-1.4-4.7
		c0-1.9,0.5-3.5,1.5-4.9c1-1.4,2.4-2.5,4.2-3.2c1.8-0.8,3.9-1.1,6.3-1.1c2.2,0,4.3,0.3,6.4,0.9c2.1,0.6,4,1.4,5.6,2.5l-3,6.3
		C334.7,108.2,333,107.4,331.2,106.8z"/>
	<path class="st0" d="M365.7,106.8c-1.8-0.6-3.3-0.9-4.6-0.9c-1,0-1.7,0.2-2.3,0.5c-0.6,0.4-0.8,0.9-0.8,1.6c0,0.7,0.2,1.2,0.7,1.7
		c0.5,0.4,1.1,0.8,1.8,1.1c0.7,0.3,1.8,0.6,3.2,1.1c2.1,0.6,3.8,1.2,5.2,1.8c1.4,0.6,2.5,1.5,3.5,2.8s1.5,2.9,1.5,4.9
		c0,2-0.5,3.7-1.6,5.1s-2.5,2.5-4.4,3.2c-1.8,0.7-3.9,1.1-6.2,1.1c-2.5,0-5-0.4-7.4-1.3c-2.5-0.9-4.6-2.1-6.4-3.6l3-6.1
		c1.5,1.3,3.3,2.4,5.4,3.3c2.1,0.9,3.9,1.3,5.5,1.3c1.2,0,2.1-0.2,2.8-0.6c0.7-0.4,1-1.1,1-1.9c0-0.7-0.3-1.3-0.8-1.7
		c-0.5-0.5-1.1-0.8-1.9-1.1c-0.8-0.3-1.8-0.6-3.2-1c-2.1-0.6-3.8-1.2-5.1-1.7c-1.3-0.6-2.5-1.5-3.5-2.7c-1-1.2-1.4-2.8-1.4-4.7
		c0-1.9,0.5-3.5,1.5-4.9c1-1.4,2.4-2.5,4.2-3.2c1.8-0.8,3.9-1.1,6.3-1.1c2.2,0,4.3,0.3,6.4,0.9c2.1,0.6,4,1.4,5.6,2.5l-3,6.3
		C369.2,108.2,367.5,107.4,365.7,106.8z"/>
</g>
<g>
	<path class="st0" d="M453.7,101.6c2.5,1.3,4.4,3.2,5.8,5.5c1.4,2.3,2.1,5,2.1,7.9c0,2.9-0.7,5.6-2.1,8c-1.4,2.4-3.4,4.2-5.8,5.6
		s-5.2,2.1-8.3,2.1s-5.8-0.7-8.3-2c-2.5-1.4-4.4-3.2-5.8-5.6s-2.1-5.1-2.1-8c0-2.9,0.7-5.5,2.1-7.9c1.4-2.3,3.4-4.2,5.8-5.5
		c2.5-1.3,5.2-2,8.3-2S451.2,100.3,453.7,101.6z M441.3,107.4c-1.3,0.8-2.3,1.8-3,3.2c-0.7,1.4-1.1,2.9-1.1,4.5
		c0,1.7,0.4,3.2,1.1,4.5c0.8,1.4,1.8,2.4,3,3.2s2.6,1.2,4.1,1.2s2.9-0.4,4.1-1.2s2.2-1.9,2.9-3.2c0.7-1.4,1.1-2.9,1.1-4.5
		c0-1.6-0.4-3.1-1.1-4.5c-0.7-1.4-1.7-2.4-2.9-3.2c-1.2-0.8-2.6-1.2-4.1-1.2S442.6,106.6,441.3,107.4z"/>
	<path class="st0" d="M469.1,100.1h22.5l0,6.3H477v6.7h13.5v6.3H477v10.8h-7.8V100.1z"/>
</g>
</svg>
