<?xml version="1.0" encoding="utf-8"?>
<!-- Generator: Adobe Illustrator 16.0.0, SVG Export Plug-In . SVG Version: 6.00 Build 0)  -->
<!DOCTYPE svg PUBLIC "-//W3C//DTD SVG 1.1//EN" "http://www.w3.org/Graphics/SVG/1.1/DTD/svg11.dtd">
<svg version="1.1" id="Layer_3" xmlns="http://www.w3.org/2000/svg" xmlns:xlink="http://www.w3.org/1999/xlink" x="0px" y="0px"
	 width="792px" height="133.097px" viewBox="0 245.941 792 133.097" enable-background="new 0 245.941 792 133.097"
	 xml:space="preserve">
<path d="M355.379,278.995c0,0,0.227,0,0.34,0c0,0.114,0,2.61,0,2.61c-0.114,0-2.042,0.227-2.042,0.227
	c-3.518,0.567-3.518,1.135-3.518,9.191v28.934c0,8.057,0,8.624,3.518,9.191c0,0,1.929,0.227,2.156,0.227c0,0.113,0,2.61,0,2.61
	c-0.113,0-22.239,0-22.353,0c0-0.114,0-2.61,0-2.61c0.114,0,0.227,0,0.227,0c1.475-0.227,1.475-0.227,1.588-0.227
	c0.114,0,0.341,0,0.341,0c3.517-0.567,3.517-1.135,3.517-9.191v-13.502h-23.374v13.616c0,7.942,0,8.623,3.404,9.077
	c0,0,1.929,0.227,2.156,0.227c0,0.113,0,2.61,0,2.61c-0.114,0-22.24,0-22.24,0c0-0.114,0-2.61,0-2.61c0.113,0,0.227,0,0.227,0
	c1.475-0.227,1.248-0.113,1.361-0.113c0.114,0,0.567-0.113,0.567-0.113c3.518-0.567,3.518-1.135,3.518-9.077v-29.048
	c0-7.943,0-8.624-3.404-9.191c0,0-1.929-0.227-2.156-0.227c0-0.113,0-2.496,0-2.61c0.114,0,22.24,0,22.24,0c0,0.114,0,2.61,0,2.61
	c-0.113,0-0.227,0-0.227,0c-1.475,0.227-1.248,0.113-1.815,0.227h-0.113c-3.518,0.567-3.518,1.135-3.518,9.077v11.347h23.374
	v-11.233c0-7.943,0-8.624-3.517-9.191c0,0-1.929-0.227-2.156-0.227c0-0.113,0-2.496,0-2.61H355.379"/>
<path d="M443.883,278.995c1.93-0.454,2.156-0.454,3.972-0.454h0.341l21.104,39.373v0.113l19.743-38.919h0.113
	c1.702-0.454,2.383-0.454,4.085-0.454c0,0,0.227,0,0.341,0c0,0.114,2.383,43.685,2.383,43.685c0.34,6.128,1.361,6.468,3.518,6.922
	c0,0,2.383,0.454,2.609,0.454c0,0.113,0,2.609,0,2.609c-0.113,0-23.034,0-23.034,0c0-0.113,0-2.609,0-2.609
	c0.113,0,2.837-0.454,2.837-0.454c3.063-0.567,3.857-0.681,3.857-4.539v-1.248l-1.021-26.21h-0.113l-16.227,34.38h-0.113
	c-1.135,0.454-1.929,0.681-3.063,0.794c0,0-0.113,0-0.227,0c0-0.113-17.701-35.515-17.701-35.515l-0.908,26.438v1.702
	c0,3.404,0.795,3.631,3.858,4.198c0,0,2.609,0.341,2.95,0.454c0,0.113,0,2.609,0,2.609c-0.113,0-17.928,0-18.041,0
	c0-0.113,0-2.609,0-2.609l2.269-0.454c2.156-0.454,3.178-0.908,3.632-6.127c0,0,2.723-43.004,2.723-43.912
	C443.656,278.995,443.883,278.995,443.883,278.995"/>
<path d="M609.771,278.995h0.228v0.227c0.907,4.085,0.907,8.851,0.907,12.936v0.227c-0.113,0-3.29,0.454-3.403,0.454
	c0-0.114-0.114-0.34-0.114-0.34c-2.042-9.985-4.538-9.985-12.708-9.985h-5.446v19.857h5.106c7.148,0,7.942-0.114,8.396-3.177
	c0,0,0.454-2.95,0.454-3.063c0.113,0,2.609,0,2.609,0c0,0.113,0,16.339,0,16.453c-0.113,0-2.609,0-2.609,0
	c0-0.113-0.454-2.837-0.454-2.837c-0.567-3.29-1.362-3.29-8.057-3.29h-5.446v20.65l0,0c2.496,0.567,5.106,1.135,7.716,1.135
	c11.007,0,12.368-5.22,13.843-10.893c0,0,0.228-1.021,0.341-1.248c0.113,0,3.29,0.681,3.404,0.681c0,0.113,0,0.227,0,0.227
	c-0.341,5.22-0.908,9.418-2.61,14.638c0,0,0,0.113-0.113,0.227c-0.113,0-39.146,0-39.26,0c0-0.113,0-2.609,0-2.609
	c0.113,0,2.156-0.227,2.156-0.227h0.34c3.178-0.567,3.178-0.567,3.178-9.191v-28.934c0-8.396,0-8.396-3.064-9.077l-0.453-0.114
	c0,0-0.454-0.113-2.156-0.34c0-0.113,0-2.496,0-2.609C572.896,278.995,609.771,278.995,609.771,278.995"/>
<path d="M407.12,278.995c0.113,0,18.154,0,18.268,0c0,0.114,0,2.61,0,2.724c-0.113,0-1.815,0.567-1.815,0.567
	c-2.155,0.567-3.177,1.135-3.177,6.354c-0.454,19.517-0.454,19.517-0.454,19.517l-0.113,3.744
	c-0.794,14.297-7.829,21.559-20.991,21.559c-16.453,0-24.396-7.489-24.396-22.693v-19.63c0-7.942,0-8.624-3.518-9.077
	c0,0-1.929-0.227-2.156-0.227c0-0.113,0-2.61,0-2.61c0.113,0,22.126,0,22.239,0c0,0.114,0,2.61,0,2.61
	c-0.113,0-2.156,0.227-2.156,0.227c-3.518,0.567-3.518,1.135-3.518,9.077v23.828c0,8.51,5.9,14.297,14.751,14.297
	c5.673,0,12.254-3.29,13.389-12.595c0.341-2.609,0.454-4.992,0.454-8.17l-0.34-20.651c-0.114-5.106-0.567-5.106-4.085-5.673
	c0,0-2.156-0.227-2.383-0.227V278.995"/>
<path d="M537.039,328.467c-1.929,0-3.971-0.454-6.127-1.135l0,0v-21.559h3.178c9.758,0,13.275,6.354,13.275,12.141
	C547.252,324.722,543.621,328.467,537.039,328.467 M530.912,283.08L530.912,283.08c1.248-0.34,2.496-0.454,3.744-0.454
	c6.128,0,9.985,3.744,9.985,9.531c0,8.85-6.014,9.985-11.119,9.985h-2.61V283.08z M545.437,303.05h-0.228H545.437
	c6.808-2.383,10.212-6.694,10.212-12.822c0-7.489-5.9-11.347-17.36-11.347h-23.715c0,0-0.228,0-0.341,0c0,0.113,0,2.61,0,2.61
	c0.228,0,2.156,0.227,2.156,0.227h0.227c3.178,0.567,3.178,0.567,3.178,8.964v29.161c0,8.396,0,8.396-3.178,9.077l-0.34,0.114
	c0,0-2.043,0.227-2.156,0.227c0,0.113,0,2.609,0,2.609c0.113,0,20.991,0,20.991,0c14.978,0,22.921-5.333,22.921-15.317
	C558.258,306.341,548.5,303.617,545.437,303.05z"/>
<path d="M648.691,305.66h-3.631v-22.58l0,0c1.248-0.34,2.496-0.454,3.744-0.454c6.581,0,10.893,4.425,10.893,11.12
	C659.924,296.696,659.924,305.66,648.691,305.66 M678.079,329.374c-1.476-0.113-3.404-0.34-4.652-2.042
	c-5.333-6.694-10.779-17.247-12.595-21.105l0,0l0,0c3.063-1.475,10.099-5.673,10.099-13.729c0-12.028-10.212-13.616-19.062-13.616
	h-22.92c0,0-0.228,0-0.341,0c0,0.113,0,2.61,0,2.61c0.227,0,2.156,0.227,2.156,0.227c3.518,0.567,3.518,1.021,3.518,9.077v29.047
	c0,8.057,0,8.624-3.518,9.191c0,0-0.228,0-0.341,0c-0.227,0-0.113,0-1.589,0.227h-0.227c0,0.113,0,2.609,0,2.609
	c0.113,0,22.239,0,22.354,0c0-0.113,0-2.609,0-2.609c-0.228,0-2.156-0.227-2.156-0.227c-3.518-0.567-3.518-1.135-3.518-9.078
	v-10.779h2.27c3.857,0,4.652,1.702,6.24,5.22l1.362,2.837l3.063,5.9c2.042,4.085,5.446,8.736,13.162,8.736c0,0,7.148,0,7.262,0
	c0-0.113,0-2.609,0-2.609C678.42,329.487,678.079,329.374,678.079,329.374z"/>
<path d="M261.201,263.45c0,5.22-4.198,16.418-9.418,16.418c-5.219,0-9.417-4.198-9.417-9.418c0-5.219,4.198-9.417,9.417-9.417
	C256.89,261.032,261.201,258.23,261.201,263.45"/>
<path d="M144.443,330.814v-50.152h14.637v36.99c10.439-8.623,21.559-16.339,32.906-22.92v-31.771h14.524v23.715
	c9.304-4.652,18.608-8.51,27.686-11.688c-12.027-17.474-32.111-29.047-54.918-29.047c-36.763,0-66.492,29.729-66.492,66.492
	c0,14.751,4.879,28.367,12.936,39.486C131.395,344.544,137.636,337.509,144.443,330.814"/>
<path d="M235.444,277.031c-9.645,3.972-19.403,9.305-28.934,15.886v69.214h-14.638v-58.095
	c-20.197,17.021-38.011,39.26-49.131,64.223c10.439,6.808,22.92,10.779,36.423,10.779c36.763,0,66.492-29.729,66.492-66.492
	C245.77,299.498,242.025,287.243,235.444,277.031"/>
<g>
	<path d="M358.852,339.64h3.5l1.428,12.012l1.708-12.012h3.164l1.68,12.012l1.456-12.012h3.416l-2.968,19.655h-3.584l-1.624-11.619
		l-1.624,11.619h-3.584L358.852,339.64z"/>
	<path d="M384.191,339.64h7.504v3.248h-4.088v4.872h3.612v3.247h-3.612v4.984h4.172v3.248h-7.588V339.64z"/>
	<path d="M401.271,339.64h2.912c2.016,0,3.947,0.504,5.096,1.651c0.84,0.84,1.288,1.904,1.288,3.332v0.141
		c0,2.52-1.429,3.752-2.828,4.424c1.651,0.728,3.08,1.876,3.08,4.368v0.252c0,3.472-2.688,5.432-6.496,5.432h-3.052V339.64z
		 M407.207,345.239c0-1.708-1.008-2.436-2.52-2.436h-0.057v5.067h0.057c1.512,0,2.52-0.868,2.52-2.576V345.239z M404.715,350.839
		h-0.084v5.236h0.084c1.568,0,2.688-0.924,2.688-2.548v-0.14C407.403,351.764,406.283,350.839,404.715,350.839z"/>
	<path d="M432.379,339.64h3.191c4.368,0,6.86,3.164,6.86,9.464v0.672c0,6.3-2.492,9.464-6.86,9.464h-3.191V339.64z M435.795,342.775
		v13.328h0.14c1.624,0,3.024-1.429,3.024-6.328v-0.672c0-4.9-1.4-6.328-3.024-6.328H435.795z"/>
	<path d="M451.951,339.64h7.504v3.248h-4.088v4.872h3.611v3.247h-3.611v4.984h4.172v3.248h-7.588V339.64z"/>
	<path d="M468.051,339.64h3.472l1.848,12.768l1.849-12.768h3.359l-3.5,19.655h-3.527L468.051,339.64z"/>
	<path d="M487.454,339.64h7.504v3.248h-4.088v4.872h3.612v3.247h-3.612v4.984h4.172v3.248h-7.588V339.64z"/>
	<path d="M504.534,339.64h3.416v16.352h3.612v3.248h-7.028V339.64z"/>
	<path d="M519.738,349.943v-1.008c0-6.468,2.101-9.576,5.208-9.576c3.108,0,5.208,3.108,5.208,9.576v1.008
		c0,6.468-2.1,9.576-5.208,9.576C521.839,359.52,519.738,356.411,519.738,349.943z M526.683,349.943v-1.008
		c0-5.04-0.7-6.44-1.736-6.44s-1.736,1.4-1.736,6.44v1.008c0,5.04,0.7,6.439,1.736,6.439S526.683,354.983,526.683,349.943z"/>
	<path d="M539.674,339.64h3.052c3.725,0,6.328,2.016,6.328,6.607v0.057c0,4.424-2.464,6.523-5.936,6.775h-0.028v6.16h-3.416V339.64z
		 M543.118,349.915c1.428-0.084,2.52-1.12,2.52-3.5v-0.056c0-2.492-0.952-3.556-2.436-3.556h-0.112v7.111H543.118z"/>
	<path d="M558.294,339.64h3.444l2.352,7.447l2.353-7.447h3.443v19.6h-3.275v-11.9l-2.492,7.477h-0.056l-2.492-7.477v11.9h-3.276
		V339.64z"/>
	<path d="M579.741,339.64h7.504v3.248h-4.088v4.872h3.612v3.247h-3.612v4.984h4.172v3.248h-7.588V339.64z"/>
	<path d="M596.82,339.64h3.164l3.528,10.136V339.64h3.275v19.6h-2.996l-3.695-10.612v10.612h-3.276V339.64z"/>
	<path d="M618.464,342.888h-2.408v-3.248h8.232v3.248h-2.408v16.352h-3.416V342.888z"/>
</g>
</svg>
