<?xml version="1.0" encoding="utf-8"?>
<!-- Generator: Adobe Illustrator 21.1.0, SVG Export Plug-In . SVG Version: 6.00 Build 0)  -->
<svg version="1.1" id="Layer_3" xmlns="http://www.w3.org/2000/svg" xmlns:xlink="http://www.w3.org/1999/xlink" x="0px" y="0px"
	 viewBox="0 0 698 233" style="enable-background:new 0 0 698 233;" xml:space="preserve">
<path d="M313.2,92.7c0,0,0.2,0,0.3,0c0,0.1,0,2.3,0,2.3c-0.1,0-1.8,0.2-1.8,0.2c-3.1,0.5-3.1,1-3.1,8.1v25.5c0,7.1,0,7.6,3.1,8.1
	c0,0,1.7,0.2,1.9,0.2c0,0.1,0,2.3,0,2.3c-0.1,0-19.6,0-19.7,0c0-0.1,0-2.3,0-2.3c0.1,0,0.2,0,0.2,0c1.3-0.2,1.3-0.2,1.4-0.2
	c0.1,0,0.3,0,0.3,0c3.1-0.5,3.1-1,3.1-8.1v-11.9h-20.6v12c0,7,0,7.6,3,8c0,0,1.7,0.2,1.9,0.2c0,0.1,0,2.3,0,2.3
	c-0.1,0-19.6,0-19.6,0c0-0.1,0-2.3,0-2.3c0.1,0,0.2,0,0.2,0c1.3-0.2,1.1-0.1,1.2-0.1c0.1,0,0.5-0.1,0.5-0.1c3.1-0.5,3.1-1,3.1-8
	v-25.6c0-7,0-7.6-3-8.1c0,0-1.7-0.2-1.9-0.2c0-0.1,0-2.2,0-2.3c0.1,0,19.6,0,19.6,0c0,0.1,0,2.3,0,2.3c-0.1,0-0.2,0-0.2,0
	c-1.3,0.2-1.1,0.1-1.6,0.2c0,0-0.1,0-0.1,0c-3.1,0.5-3.1,1-3.1,8v10h20.6v-9.9c0-7,0-7.6-3.1-8.1c0,0-1.7-0.2-1.9-0.2
	c0-0.1,0-2.2,0-2.3C293.9,92.7,313.2,92.7,313.2,92.7"/>
<path d="M391.2,92.7c1.7-0.4,1.9-0.4,3.5-0.4l0.3,0c0,0,18.6,34.7,18.6,34.7l0,0.1c0,0,17.4-34.3,17.4-34.3c0,0,0.1,0,0.1,0
	c1.5-0.4,2.1-0.4,3.6-0.4c0,0,0.2,0,0.3,0c0,0.1,2.1,38.5,2.1,38.5c0.3,5.4,1.2,5.7,3.1,6.1c0,0,2.1,0.4,2.3,0.4c0,0.1,0,2.3,0,2.3
	c-0.1,0-20.3,0-20.3,0c0-0.1,0-2.3,0-2.3c0.1,0,2.5-0.4,2.5-0.4c2.7-0.5,3.4-0.6,3.4-4l0-1.1l-0.9-23.1l-0.1,0
	c0,0-14.3,30.3-14.3,30.3c0,0-0.1,0-0.1,0c-1,0.4-1.7,0.6-2.7,0.7c0,0-0.1,0-0.2,0c0-0.1-15.6-31.3-15.6-31.3l-0.8,23.3l0,1.5
	c0,3,0.7,3.2,3.4,3.7c0,0,2.3,0.3,2.6,0.4c0,0.1,0,2.3,0,2.3c-0.1,0-15.8,0-15.9,0c0-0.1,0-2.3,0-2.3c0,0,2-0.4,2-0.4
	c1.9-0.4,2.8-0.8,3.2-5.4c0,0,2.4-37.9,2.4-38.7C391,92.7,391.2,92.7,391.2,92.7"/>
<path d="M537.4,92.7c0,0,0.2,0,0.2,0c0,0,0,0.2,0,0.2c0.8,3.6,0.8,7.8,0.8,11.4c0,0,0,0.2,0,0.2c-0.1,0-2.9,0.4-3,0.4
	c0-0.1-0.1-0.3-0.1-0.3c-1.8-8.8-4-8.8-11.2-8.8h-4.8v17.5h4.5c6.3,0,7-0.1,7.4-2.8c0,0,0.4-2.6,0.4-2.7c0.1,0,2.3,0,2.3,0
	c0,0.1,0,14.4,0,14.5c-0.1,0-2.3,0-2.3,0c0-0.1-0.4-2.5-0.4-2.5c-0.5-2.9-1.2-2.9-7.1-2.9h-4.8v18.2l0,0c2.2,0.5,4.5,1,6.8,1
	c9.7,0,10.9-4.6,12.2-9.6c0,0,0.2-0.9,0.3-1.1c0.1,0,2.9,0.6,3,0.6c0,0.1,0,0.2,0,0.2c-0.3,4.6-0.8,8.3-2.3,12.9c0,0,0,0.1-0.1,0.2
	c-0.1,0-34.5,0-34.6,0c0-0.1,0-2.3,0-2.3c0.1,0,1.9-0.2,1.9-0.2l0.3,0c2.8-0.5,2.8-0.5,2.8-8.1v-25.5c0-7.4,0-7.4-2.7-8l-0.4-0.1
	c0,0-0.4-0.1-1.9-0.3c0-0.1,0-2.2,0-2.3C504.9,92.7,537.4,92.7,537.4,92.7"/>
<path d="M358.8,92.7c0.1,0,16,0,16.1,0c0,0.1,0,2.3,0,2.4c-0.1,0-1.6,0.5-1.6,0.5c-1.9,0.5-2.8,1-2.8,5.6
	c-0.4,17.2-0.4,17.2-0.4,17.2l-0.1,3.3c-0.7,12.6-6.9,19-18.5,19c-14.5,0-21.5-6.6-21.5-20v-17.3c0-7,0-7.6-3.1-8
	c0,0-1.7-0.2-1.9-0.2c0-0.1,0-2.3,0-2.3c0.1,0,19.5,0,19.6,0c0,0.1,0,2.3,0,2.3c-0.1,0-1.9,0.2-1.9,0.2c-3.1,0.5-3.1,1-3.1,8v21
	c0,7.5,5.2,12.6,13,12.6c5,0,10.8-2.9,11.8-11.1c0.3-2.3,0.4-4.4,0.4-7.2l-0.3-18.2c-0.1-4.5-0.5-4.5-3.6-5c0,0-1.9-0.2-2.1-0.2
	L358.8,92.7"/>
<path d="M473.3,136.3c-1.7,0-3.5-0.4-5.4-1l0,0v-19h2.8c8.6,0,11.7,5.6,11.7,10.7C482.3,133,479.1,136.3,473.3,136.3 M467.9,96.3
	L467.9,96.3c1.1-0.3,2.2-0.4,3.3-0.4c5.4,0,8.8,3.3,8.8,8.4c0,7.8-5.3,8.8-9.8,8.8h-2.3V96.3z M480.7,113.9l-0.2,0L480.7,113.9
	c6-2.1,9-5.9,9-11.3c0-6.6-5.2-10-15.3-10h-20.9c0,0-0.2,0-0.3,0c0,0.1,0,2.3,0,2.3c0.2,0,1.9,0.2,1.9,0.2l0.2,0
	c2.8,0.5,2.8,0.5,2.8,7.9v25.7c0,7.4,0,7.4-2.8,8l-0.3,0.1c0,0-1.8,0.2-1.9,0.2c0,0.1,0,2.3,0,2.3c0.1,0,18.5,0,18.5,0
	c13.2,0,20.2-4.7,20.2-13.5C492,116.8,483.4,114.4,480.7,113.9z"/>
<path d="M571.7,116.2h-3.2V96.3l0,0c1.1-0.3,2.2-0.4,3.3-0.4c5.8,0,9.6,3.9,9.6,9.8C581.6,108.3,581.6,116.2,571.7,116.2
	 M597.6,137.1c-1.3-0.1-3-0.3-4.1-1.8c-4.7-5.9-9.5-15.2-11.1-18.6l0,0l0,0c2.7-1.3,8.9-5,8.9-12.1c0-10.6-9-12-16.8-12h-20.2
	c0,0-0.2,0-0.3,0c0,0.1,0,2.3,0,2.3c0.2,0,1.9,0.2,1.9,0.2c3.1,0.5,3.1,0.9,3.1,8v25.6c0,7.1,0,7.6-3.1,8.1c0,0-0.2,0-0.3,0
	c-0.2,0-0.1,0-1.4,0.2c0,0-0.2,0-0.2,0c0,0.1,0,2.3,0,2.3c0.1,0,19.6,0,19.7,0c0-0.1,0-2.3,0-2.3c-0.2,0-1.9-0.2-1.9-0.2
	c-3.1-0.5-3.1-1-3.1-8v-9.5h2c3.4,0,4.1,1.5,5.5,4.6l1.2,2.5l2.7,5.2c1.8,3.6,4.8,7.7,11.6,7.7c0,0,6.3,0,6.4,0c0-0.1,0-2.3,0-2.3
	C597.9,137.2,597.6,137.1,597.6,137.1z"/>
<path d="M230.2,79c0,4.6-3.7,8.3-8.3,8.3c-4.6,0-8.3-3.7-8.3-8.3c0-4.6,3.7-8.3,8.3-8.3C226.4,70.7,230.2,74.4,230.2,79"/>
<path d="M127.3,132.2V88h12.9v32.6c9.2-7.6,19-14.4,29-20.2V72.4H182v20.9c8.2-4.1,16.4-7.5,24.4-10.3
	c-10.6-15.4-28.3-25.6-48.4-25.6c-32.4,0-58.6,26.2-58.6,58.6c0,13,4.3,25,11.4,34.8C115.8,144.3,121.3,138.1,127.3,132.2"/>
<path d="M207.5,84.8c-8.5,3.5-17.1,8.2-25.5,14v61h-12.9v-51.2c-17.8,15-33.5,34.6-43.3,56.6c9.2,6,20.2,9.5,32.1,9.5
	c32.4,0,58.6-26.2,58.6-58.6C216.6,104.6,213.3,93.8,207.5,84.8"/>
</svg>
